<svg width="65" height="26" viewBox="0 0 65 26" fill="none" xmlns="http://www.w3.org/2000/svg">
<path d="M26.144 11.636C26.144 16.124 24.872 19.448 22.328 21.608C21.416 22.376 20.204 23 18.692 23.48C17.18 23.96 15.344 24.2 13.184 24.2C11.024 24.2 9.092 23.852 7.388 23.156C5.66 22.436 4.328 21.464 3.392 20.24C1.64 17.864 0.763999 14.996 0.763999 11.636C0.763999 10.556 0.847999 9.5 1.016 8.468C1.16 7.436 1.316 6.668 1.484 6.164L1.736 5.408L2.096 5.516C1.448 7.388 1.124 9.428 1.124 11.636C1.124 14.18 1.952 16.304 3.608 18.008C4.832 19.304 6.632 20.216 9.008 20.744C10.352 21.056 11.996 21.212 13.94 21.212C15.884 21.212 17.684 20.936 19.34 20.384C20.972 19.832 22.184 19.208 22.976 18.512C23.768 17.792 24.404 16.928 24.884 15.92C25.34 14.912 25.604 14.108 25.676 13.508C25.748 12.908 25.784 12.2 25.784 11.384C25.784 10.544 25.688 9.428 25.496 8.036H18.08V12.392H17.72V3.5H18.08V5.048H25.172C25.82 6.872 26.144 9.068 26.144 11.636Z" fill="white"/>
<path d="M21.512 26H21.08L31.844 0.799998L32.24 0.619998L41.312 26H38.252L35.444 18.08H24.932L21.512 26ZM30.728 4.688L25.076 17.72H35.336L30.728 4.688Z" fill="white"/>
<path d="M38.856 16.364C38.856 11.876 40.128 8.552 42.672 6.392C43.584 5.624 44.796 5 46.308 4.52C47.82 4.04 49.656 3.8 51.816 3.8C53.976 3.8 55.908 4.148 57.612 4.844C59.34 5.564 60.672 6.536 61.608 7.76C63.36 10.136 64.236 13.004 64.236 16.364C64.236 17.444 64.152 18.5 63.984 19.532C63.84 20.564 63.684 21.332 63.516 21.836L63.264 22.592L62.904 22.484C63.552 20.612 63.876 18.572 63.876 16.364C63.876 13.82 63.048 11.696 61.392 9.992C60.168 8.696 58.368 7.784 55.992 7.256C54.648 6.944 53.004 6.788 51.06 6.788C49.116 6.788 47.316 7.064 45.66 7.616C44.028 8.168 42.816 8.792 42.024 9.488C41.232 10.208 40.596 11.072 40.116 12.08C39.66 13.088 39.396 13.892 39.324 14.492C39.252 15.092 39.216 15.8 39.216 16.616C39.216 17.456 39.312 18.572 39.504 19.964L46.92 19.964V15.608H47.28V24.5H46.92V22.952L39.828 22.952C39.18 21.128 38.856 18.932 38.856 16.364Z" fill="white"/>
</svg>
